<?xml version="1.0" standalone="no"?>
<!DOCTYPE svg PUBLIC "-//W3C//DTD SVG 20010904//EN"
 "http://www.w3.org/TR/2001/REC-SVG-20010904/DTD/svg10.dtd">
<svg version="1.0" xmlns="http://www.w3.org/2000/svg"
 width="512.000000pt" height="512.000000pt" viewBox="0 0 512.000000 512.000000"
 preserveAspectRatio="xMidYMid meet">

<g transform="translate(0.000000,512.000000) scale(0.100000,-0.100000)"
fill="#000000" stroke="none">
<path d="M2325 5110 c-521 -53 -1003 -252 -1398 -580 -123 -102 -142 -146 -85
-200 42 -38 74 -27 183 63 430 353 907 534 1460 554 1347 47 2465 -1036 2465
-2387 0 -717 -313 -1381 -871 -1845 -871 -725 -2167 -725 -3038 0 -578 481
-894 1178 -868 1915 19 532 185 992 506 1404 72 93 80 128 38 174 -22 23 -65
29 -96 12 -49 -26 -253 -324 -338 -495 -192 -382 -275 -734 -277 -1165 -1
-228 9 -326 50 -530 141 -689 583 -1304 1204 -1674 292 -175 632 -291 990
-338 123 -16 497 -16 620 0 623 82 1150 356 1581 820 239 256 425 575 539 922
91 274 124 491 124 800 0 228 -9 329 -50 530 -141 689 -583 1304 -1204 1674
-289 173 -634 291 -980 336 -115 15 -444 21 -555 10z"/>
<path d="M2270 4420 c-408 -67 -754 -244 -1040 -530 -359 -359 -550 -821 -550
-1330 0 -509 191 -971 550 -1330 356 -356 822 -550 1321 -550 237 0 384 23
596 91 135 44 385 164 432 208 37 35 41 76 11 114 -35 44 -62 39 -225 -44
-239 -123 -434 -180 -675 -198 -502 -37 -983 142 -1340 499 -608 607 -674
1559 -156 2245 117 155 314 333 471 427 616 367 1365 330 1930 -96 265 -200
480 -498 588 -816 164 -481 101 -1028 -167 -1455 -56 -89 -184 -251 -241 -305
-69 -66 -80 -116 -33 -160 13 -12 35 -20 57 -20 32 0 44 9 105 73 287 302 451
627 516 1022 25 151 27 411 5 559 -64 416 -244 775 -535 1066 -291 291 -650
471 -1066 535 -138 21 -415 18 -554 -5z"/>
</g>
</svg>
