<?xml version="1.0" standalone="no"?>
<!DOCTYPE svg PUBLIC "-//W3C//DTD SVG 20010904//EN"
 "http://www.w3.org/TR/2001/REC-SVG-20010904/DTD/svg10.dtd">
<svg version="1.0" xmlns="http://www.w3.org/2000/svg"
 width="512.000000pt" height="512.000000pt" viewBox="0 0 512.000000 512.000000"
 preserveAspectRatio="xMidYMid meet">

<g transform="translate(0.000000,512.000000) scale(0.100000,-0.100000)"
fill="#000000" stroke="none">
<path d="M1155 5107 c-22 -8 -53 -21 -70 -30 -16 -8 -258 -244 -536 -524 -561
-563 -544 -542 -544 -673 0 -132 -24 -103 614 -743 l576 -577 -576 -578 c-642
-643 -614 -609 -614 -747 1 -130 -12 -114 558 -682 567 -566 545 -548 677
-548 132 0 103 -24 743 614 l577 576 223 -223 c193 -193 228 -223 255 -224 61
-2 103 49 87 104 -10 32 -493 517 -532 534 -28 12 -38 12 -65 0 -19 -8 -278
-260 -618 -601 -322 -322 -597 -593 -612 -601 -34 -18 -82 -18 -116 0 -33 18
-985 972 -1001 1003 -15 30 -14 79 3 111 8 15 279 290 601 612 341 340 593
599 601 617 12 29 12 37 0 66 -8 18 -260 277 -601 617 -322 322 -593 597 -601
612 -18 34 -18 82 0 116 18 33 972 985 1003 1001 28 14 78 14 106 0 12 -6 92
-81 178 -165 140 -138 160 -154 190 -154 51 1 89 39 89 91 0 35 -309 342 -377
376 -63 30 -159 39 -218 20z"/>
<path d="M3795 5107 c-22 -8 -51 -19 -65 -26 -14 -7 -283 -270 -598 -585
l-572 -571 -309 309 c-298 298 -309 308 -347 308 -29 0 -44 -6 -61 -27 -27
-30 -29 -55 -9 -93 22 -41 667 -680 699 -691 21 -8 36 -7 60 3 18 8 284 267
617 601 322 322 597 593 612 601 32 17 81 18 111 3 31 -16 985 -968 1003
-1001 18 -34 18 -82 0 -116 -8 -15 -279 -290 -601 -612 -322 -322 -593 -598
-601 -614 -10 -17 -13 -39 -9 -55 4 -17 217 -238 605 -626 329 -330 603 -610
609 -622 14 -28 14 -78 0 -106 -16 -31 -968 -985 -1001 -1003 -32 -17 -81 -18
-111 -3 -12 6 -130 119 -263 250 -227 226 -243 239 -278 239 -46 0 -86 -38
-86 -84 0 -26 32 -62 248 -278 286 -288 308 -303 432 -303 135 1 115 -15 687
558 566 567 548 545 548 677 0 132 24 103 -614 742 l-576 578 576 577 c638
640 614 611 614 743 0 132 18 110 -548 677 -558 559 -549 552 -672 559 -33 2
-78 -2 -100 -9z"/>
</g>
</svg>
